<svg xmlns="http://www.w3.org/2000/svg" width="999.994" height="576.377" viewBox="0 0 999.994 576.377">
  <g id="Group_123" data-name="Group 123" transform="translate(-869.097 -79)">
    <g id="Group_97" data-name="Group 97" transform="translate(870.867 79)">
      <path id="Path_6" data-name="Path 6" d="M8.315,25.678H55.506c28.459,0,47.191,15.132,47.191,39.99v.357c0,27.2-22.693,41.247-49.533,41.247H22.547v44.493H8.315ZM53.7,94.31c20.9,0,34.584-11.171,34.584-27.739v-.362c0-18.009-13.508-27.378-33.862-27.378H22.547V94.31Z" transform="translate(-8.315 -23.88)"/>
      <path id="Path_7" data-name="Path 7" d="M88.138,25.678H179.28V38.652H102.367V81.7h68.806V94.665H102.367V138.8h77.81v12.97H88.138Z" transform="translate(97.062 -23.88)"/>
      <path id="Path_8" data-name="Path 8" d="M164.545,134.418l8.826-10.45C186.517,135.859,199.124,141.8,216.6,141.8c16.93,0,28.1-9,28.1-21.431v-.362c0-11.712-6.3-18.378-32.781-23.958-29-6.3-42.326-15.673-42.326-36.387V59.3c0-19.812,17.468-34.4,41.426-34.4,18.371,0,31.524,5.225,44.308,15.489L247.037,51.38c-11.705-9.547-23.415-13.686-36.384-13.686-16.392,0-26.832,9-26.832,20.352V58.4c0,11.891,6.48,18.554,34.22,24.5,28.1,6.12,41.066,16.389,41.066,35.663v.355c0,21.621-18.009,35.67-43.046,35.67C196.066,154.591,179.675,147.926,164.545,134.418Z" transform="translate(197.929 -24.903)"/>
      <path id="Path_9" data-name="Path 9" d="M283.051,38.831H240.718V25.678H339.79V38.831H297.461V151.766h-14.41Z" transform="translate(298.488 -23.88)"/>
      <path id="Path_10" data-name="Path 10" d="M322.871,25.678H337.1V138.617h70.968v13.148h-85.2Z" transform="translate(406.94 -23.88)"/>
      <path id="Path_11" data-name="Path 11" d="M398.887,25.678h91.142V38.652h-76.91V81.7h68.8V94.665h-68.8V138.8h77.813v12.97H398.887Z" transform="translate(507.292 -23.88)"/>
      <path id="Path_12" data-name="Path 12" d="M9.276,223.738H22.2l41.206,61.725,41.2-61.725h12.928V336.851H104.775V245.229l-41.206,60.6h-.645L21.717,245.387v91.464H9.276Z" transform="translate(-7.046 237.586)"/>
      <path id="Path_13" data-name="Path 13" d="M92.637,281.722v-.327c0-31.185,23.431-58.493,57.85-58.493s57.525,26.988,57.525,58.173v.32c0,31.192-23.431,58.5-57.848,58.5S92.637,312.907,92.637,281.722Zm102.125,0v-.327c0-25.688-18.744-46.7-44.6-46.7s-44.277,20.684-44.277,46.377v.32c0,25.7,18.744,46.7,44.6,46.7S194.762,307.415,194.762,281.722Z" transform="translate(103.001 236.482)"/>
      <path id="Path_14" data-name="Path 14" d="M179.064,223.738H227.7c13.9,0,25.048,4.2,32.159,11.308,5.492,5.5,8.721,13.413,8.721,22.3v.325c0,18.74-12.925,29.732-30.7,32.96l34.744,46.217H256.946l-32.8-43.952H191.825v43.952H179.064Zm47.5,57.685c16.965,0,29.088-8.721,29.088-23.269v-.32c0-13.9-10.663-22.3-28.928-22.3h-34.9v45.89Z" transform="translate(217.096 237.586)"/>
      <path id="Path_15" data-name="Path 15" d="M288.493,235.534H250.517v-11.8h88.877v11.8H301.421V336.851H288.493Z" transform="translate(311.424 237.586)"/>
      <path id="Path_16" data-name="Path 16" d="M365.3,223.39h11.956l51.549,113.921h-13.74l-13.248-29.893H340.255l-13.413,29.893H313.754Zm31.505,72.393-25.693-57.525-25.856,57.525Z" transform="translate(394.905 237.126)"/>
      <path id="Path_17" data-name="Path 17" d="M398.02,223.738h48.639c13.893,0,25.048,4.2,32.157,11.308a31.267,31.267,0,0,1,8.724,22.3v.325c0,18.74-12.928,29.732-30.7,32.96l34.737,46.217H475.9l-32.8-43.952h-32.32v43.952H398.02Zm47.5,57.685c16.972,0,29.087-8.721,29.087-23.269v-.32c0-13.9-10.663-22.3-28.92-22.3h-34.9v45.89Z" transform="translate(506.147 237.586)"/>
    </g>
    <g id="Group_98" data-name="Group 98" transform="translate(869.097 375.917)">
      <rect id="Rectangle_26" data-name="Rectangle 26" width="359.881" height="4.554" transform="translate(0 0)"/>
    </g>
    <g id="Group_99" data-name="Group 99" transform="translate(1505.16 375.917)">
      <rect id="Rectangle_27" data-name="Rectangle 27" width="359.881" height="4.554" transform="translate(0 0)"/>
    </g>
    <path id="Path_18" data-name="Path 18" d="M324.012,187.64c-13.369-29.043-5.875-27.73,2.712-49.862a19.609,19.609,0,0,0-1.872-18.058,21,21,0,0,0-13.253-8.993c-5.814-1.09-12.26.506-16.327,4.8-9.807,9.963.661,27.31,13.432,19.575,4.71-3.578,4.564-12.076-.594-14.972,10.812-5.478,17,9.032,9.817,16.946-9.287,10.392-24.765,10.626-37.045,15.54-15.6,4.619-28.053,20.849-20.113,36.8,8.515,18.324,32.793,19.77,39.9,8.081,7.267-11.942-2.283-21.5-2.295-21.512a11.856,11.856,0,0,0-9.162-3.306l0,0a9.7,9.7,0,0,0-9.111,11.151,11.889,11.889,0,0,0,5.524,9.141,24.213,24.213,0,0,0,7.431,2.849,11.676,11.676,0,0,1-5.424,1.5,2.527,2.527,0,0,1-.55.023c-.086,0-.172-.014-.258-.019-.429-.009-.852-.042-1.269-.088l-.13-.009a16.176,16.176,0,0,1-8.315-3.13l-.049-.032,0,0a15.906,15.906,0,0,1-6.313-13.77,17.488,17.488,0,0,1,5.2-11.522,17.906,17.906,0,0,1,13.74-4.7c6.58.615,12.392,4.772,16.612,9.858,23.577,28.825-.434,75.326-32.651,82.117-65.558,13.819-83.708-56.4-46.2-56.913l5.183-.587c17.851-3.845,12.956-25.041-4.292-22.921-12.389.956-22.484,11.032-27.573,22.368-23.113,55.482,44.649,90.585,89.787,66.205C316.165,249.82,335.937,216.76,324.012,187.64Z" transform="translate(1110.45 166.959)"/>
  </g>
</svg>
