<svg xmlns="http://www.w3.org/2000/svg" width="426" height="134" viewBox="0 0 426 134" fill="none"><g clip-path="url(#clip0_37_769)"><path d="M27.16 23.07C18 22.7 2.22001 20.77 0.0100098 11V118.73C0.0100098 134.73 31.51 133.54 33.84 133.42H333.45C387.92 133.42 387.69 43.95 425.2 23.04L27.16 23.07Z" fill="url(#paint0_linear_37_769)"></path><path d="M27.16 23.07H113.74C86.04 21.9 51.81 7.55001 46.46 5.83001C-2.17 -9.79999 0.00999772 10.97 0.00999772 10.97C2.22 20.74 18 22.67 27.16 23.07Z" fill="#000100"></path><path d="M231.78 91.5C231.896 91.1186 231.926 90.716 231.868 90.3216C231.809 89.9271 231.663 89.5508 231.44 89.22C230.89 88.51 229.85 88.09 227.68 88.54C224.17 89.25 221.04 92.24 219.42 94.04C220.282 92.1891 221.267 90.3983 222.37 88.68C222.412 88.6375 222.44 88.5835 222.451 88.5249C222.462 88.4663 222.455 88.4058 222.431 88.3511C222.408 88.2964 222.368 88.25 222.318 88.2177C222.268 88.1854 222.21 88.1688 222.15 88.17C221.062 88.1679 219.994 88.4617 219.06 89.02C217.853 89.7675 216.936 90.9029 216.46 92.24C216.38 92.48 215.97 93.46 215.46 94.72C214.033 96.3179 212.374 97.6931 210.54 98.8C209.54 99.38 208.28 99.59 207.77 99.24C207.26 98.89 207.36 97.9 207.66 96.91C208.05 95.68 209.03 93.59 209.37 92.19C209.498 91.8197 209.536 91.4241 209.48 91.0362C209.425 90.6483 209.277 90.2793 209.05 89.96C208.697 89.5074 208.255 89.1329 207.75 88.86C207.48 88.74 207.19 88.66 206.89 89.21C205.214 92.0296 203.131 94.587 200.71 96.8C198.19 98.92 196.52 99.54 195.83 99.06C195.36 98.72 195.43 97.5 195.83 96.12C196.992 93.1554 198.709 90.4401 200.89 88.12C200.946 88.0728 200.989 88.0125 201.015 87.9445C201.042 87.8766 201.051 87.8031 201.042 87.7307C201.033 87.6583 201.006 87.5893 200.964 87.5298C200.922 87.4703 200.865 87.4223 200.8 87.39C199.943 87.1213 199.034 87.063 198.15 87.22C197.027 87.5168 196.061 88.2326 195.45 89.22C194.324 90.825 193.425 92.5783 192.78 94.43C191.029 96.1901 189.11 97.7743 187.05 99.16C185.25 100.38 183.94 100.5 183.36 100.1C182.78 99.7 182.67 98.7 183.56 96.24C184.45 93.78 187.49 88.32 189.85 84.06C193.74 83.5 200.3 82.51 201.3 82.39C203.734 81.9723 206.201 81.7781 208.67 81.81C208.96 81.81 209.09 81.69 209.03 81.42C208.859 80.9827 208.577 80.5972 208.213 80.301C207.848 80.0049 207.413 79.8081 206.95 79.73C205.76 79.43 204.26 79.54 201.58 79.98C198.9 80.42 194.31 81.37 191.07 81.89C191.73 80.69 192.25 79.73 192.54 79.11C193.673 76.75 193.873 75.0567 193.14 74.03C192.831 73.6284 192.442 73.295 191.998 73.0507C191.554 72.8063 191.065 72.6563 190.56 72.61C190.49 72.5894 190.415 72.5866 190.344 72.602C190.272 72.6174 190.205 72.6505 190.15 72.6981C190.094 72.7458 190.051 72.8066 190.025 72.8751C189.999 72.9435 189.99 73.0174 190 73.09C189.991 73.7989 189.88 74.5028 189.67 75.18C188.74 77.6625 187.661 80.0868 186.44 82.44C185.13 82.56 183.85 82.64 182.8 82.64C181.225 82.6823 179.655 82.4488 178.16 81.95C177.92 81.85 177.8 82.01 177.82 82.21C177.89 83.37 178.82 84.5 181.12 84.75C182.507 84.8493 183.9 84.8124 185.28 84.64C183.81 87.54 182.05 91.41 181.14 93.44C179.509 95.2431 177.594 96.7667 175.47 97.95C174.85 98.29 173.68 98.71 173.03 98.17C172.38 97.63 172.61 96.24 172.93 94.94C173.679 92.6659 174.685 90.485 175.93 88.44C176.09 88.17 176.05 87.94 175.74 87.88C174.915 87.7294 174.064 87.834 173.3 88.18C172.296 88.6986 171.479 89.5163 170.96 90.52C170.04 91.99 167.43 96.01 164.56 98.12C162.2 99.86 159.95 100.66 159.31 100.02C158.47 99.17 159.54 96.52 161.76 93.87C163.49 91.81 166.65 89.16 169.07 89.14C169.42 89.14 169.63 88.98 169.45 88.6C169.096 87.8679 168.513 87.2712 167.79 86.9C167.356 86.6872 166.879 86.5765 166.395 86.5765C165.911 86.5765 165.434 86.6872 165 86.9C162.471 88.1609 160.322 90.0689 158.77 92.43C158.6 92.68 158.44 92.95 158.27 93.2C156.801 94.6805 155.115 95.9282 153.27 96.9C152.615 97.2429 151.857 97.332 151.14 97.15C150.51 96.91 150.26 96.36 150.14 95.33C150.02 94.3 150.23 91.12 150.23 90.1C150.3 89.5372 150.189 88.9669 149.914 88.4709C149.639 87.975 149.214 87.579 148.7 87.34C147.33 86.72 145.78 87.28 144.27 88.52C141.687 90.8288 139.265 93.3113 137.02 95.95C137.67 94.17 139.67 89.6 140.16 88.73C140.201 88.6807 140.226 88.6206 140.234 88.5571C140.241 88.4935 140.229 88.4292 140.201 88.372C140.172 88.3148 140.128 88.2672 140.072 88.2348C140.017 88.2025 139.954 88.1869 139.89 88.19C138.974 88.1295 138.059 88.3269 137.25 88.76C136.119 89.53 135.288 90.6676 134.9 91.98C134.9 92.13 134.69 92.58 134.44 93.22C132.44 94.49 129.14 96.55 126.54 98.22C127.294 94.9421 128.236 91.7101 129.36 88.54C129.47 88.3 129.45 88.09 129.13 88.03C128.29 87.9231 127.437 88.0803 126.69 88.48C125.683 89.1791 124.865 90.1171 124.31 91.21C122.56 93.7853 120.378 96.0385 117.86 97.87C114.64 100.16 111.86 100.94 111.23 100.23C110.6 99.52 111.55 96.3 114.46 93.6C117.37 90.9 121.62 89.12 124.79 89.31C124.846 89.3104 124.901 89.299 124.952 89.2763C125.003 89.2537 125.048 89.2204 125.085 89.1787C125.122 89.137 125.15 89.0879 125.166 89.0346C125.182 88.9814 125.187 88.9252 125.18 88.87C125.184 88.3522 125.024 87.8463 124.722 87.4256C124.42 87.0049 123.992 86.6913 123.5 86.53C121.996 86.0756 120.386 86.1212 118.91 86.66C115.535 87.8959 112.632 90.1586 110.61 93.13C110.34 93.55 110.07 93.99 109.81 94.46C107.892 96.05 105.782 97.3938 103.53 98.46C103.227 98.6301 102.889 98.7284 102.543 98.7475C102.196 98.7666 101.85 98.7059 101.53 98.57C101.17 98.33 101.21 97.76 101.63 96.82C102.05 95.88 103.31 93.75 103.8 92.91C104.29 92.07 104.8 90.66 104.03 89.91C103.46 89.35 102.32 89.24 100.03 89.52C95.5019 90.2106 91.0989 91.5581 86.96 93.52C85.139 92.2888 83.2344 91.1862 81.26 90.22C77.45 88.22 73.73 86.22 71.92 85.02C71.4601 84.7812 71.0793 84.4141 70.8237 83.9633C70.5681 83.5125 70.4487 82.9973 70.48 82.48C70.62 81.25 71.94 79.91 72.99 79C76.1099 76.4507 79.5448 74.3132 83.21 72.64C87.4 70.83 90.73 69.64 95.21 69.38C96.87 69.29 98.82 69.51 99.32 70.91C99.4355 71.3459 99.4596 71.8011 99.3908 72.2468C99.3219 72.6925 99.1616 73.1192 98.92 73.5C97.92 75.5 97.55 76.64 97.66 78.01C97.7404 78.693 98.0436 79.3304 98.5225 79.8238C99.0015 80.3173 99.6297 80.6393 100.31 80.74C100.68 80.82 101.31 80.88 101.41 80.39C101.863 78.1778 102.498 76.007 103.31 73.9C103.98 71.98 104.02 70.26 102.99 68.82C101.77 67.07 100.31 66.41 96.31 66.37C91.9 66.37 85.55 67.88 80.5 70.18C74.9 72.74 70.56 75.65 67.87 79.18C67.375 79.8244 67.016 80.5626 66.8149 81.3499C66.6138 82.1372 66.5747 82.9571 66.7 83.76C66.9083 84.7038 67.3254 85.5889 67.9207 86.3503C68.516 87.1117 69.2743 87.7301 70.14 88.16C74.14 90.52 80.14 93.39 83.49 95.21C77.99 98.08 69.8 103.36 65.49 110.36C63.31 113.97 63.18 118.07 65.31 120.57C68.06 123.82 74.87 124.57 83.44 118.19C87.1384 115.532 89.9645 111.836 91.56 107.57C92.84 104.06 93.02 100.2 90.33 96.8C89.7302 96.0239 89.0607 95.3042 88.33 94.65C91.73 93.02 95.82 91.71 98.22 91.65C99.36 91.65 99.75 92.09 99.48 93.01C99.21 93.93 97.97 96.34 97.6 97.48C97.3621 97.9746 97.2881 98.5322 97.3888 99.0717C97.4895 99.6112 97.7597 100.105 98.16 100.48C99.16 101.35 101.03 101.35 102.59 100.86C104.748 100.108 106.773 99.0173 108.59 97.63C108.437 98.2179 108.356 98.8224 108.35 99.43C108.306 100.135 108.535 100.829 108.99 101.37C109.565 101.953 110.318 102.326 111.13 102.43C112.174 102.589 113.241 102.528 114.26 102.25C117.15 101.43 120.26 99.25 123.32 96.04C123.11 97.13 122.71 99.04 122.19 101.27C119.77 102.98 116.82 105.15 115.98 105.8C111.98 108.96 109.18 110.87 106.86 114.88C105.17 117.88 105.26 120.99 106.55 122.07C108.2 123.44 111.19 122.95 113.49 121.54C117.37 119.18 120.35 115.54 123.11 109.42C124.416 106.462 125.421 103.38 126.11 100.22C128.42 98.6 130.92 97 133.69 95.37C132.96 97.23 132.11 99.37 131.58 100.72C131.46 100.97 131.52 101.19 131.73 101.23C132.503 101.348 133.293 101.272 134.03 101.01C134.876 100.711 135.628 100.193 136.21 99.51C137.09 98.58 140.38 94.84 141.67 93.51C142.75 92.42 143.87 91.51 144.82 91.51C145.77 91.51 145.95 92.51 146.1 93.51C146.27 94.67 146.42 96.2 146.75 97.59C146.869 98.2962 147.237 98.9364 147.787 99.395C148.338 99.8535 149.034 100.1 149.75 100.09C151.97 100.09 154.17 98.78 156.66 96.52C156.405 97.283 156.254 98.0767 156.21 98.88C156.141 99.5249 156.328 100.171 156.73 100.68C157.225 101.21 157.828 101.626 158.5 101.9C159.308 102.189 160.192 102.189 161 101.9C163.932 100.732 166.522 98.8442 168.53 96.41C168.395 97.2412 168.395 98.0888 168.53 98.92C168.645 99.5183 168.963 100.059 169.43 100.45C169.927 100.849 170.514 101.12 171.14 101.24C172.269 101.449 173.436 101.28 174.46 100.76C176.517 99.7588 178.411 98.4542 180.08 96.89C179.757 98.2737 179.949 99.7275 180.62 100.98C181.038 101.497 181.603 101.877 182.24 102.07C183.407 102.382 184.643 102.316 185.77 101.88C187.77 101.24 190.44 99.2 192.16 97.72C192.165 98.3554 192.334 98.9787 192.65 99.53C193.075 100.256 193.681 100.86 194.41 101.28C194.852 101.542 195.352 101.69 195.865 101.711C196.378 101.732 196.888 101.625 197.35 101.4C199.708 100.283 201.838 98.737 203.63 96.84C203.468 97.7663 203.468 98.7136 203.63 99.64C203.743 100.182 204.048 100.666 204.49 101C205.078 101.44 205.764 101.728 206.49 101.84C207.428 101.989 208.389 101.842 209.24 101.42C210.981 100.563 212.594 99.4655 214.03 98.16C213.03 100.47 212.14 102.65 212.03 102.9C211.92 103.15 211.93 103.37 212.32 103.37C213.236 103.266 214.114 102.944 214.88 102.43C215.461 102.019 215.945 101.487 216.3 100.87C217.422 98.915 218.804 97.1219 220.41 95.54C222.23 93.702 224.526 92.4069 227.04 91.8C228.387 91.4706 229.793 91.4706 231.14 91.8C231.53 91.85 231.7 91.75 231.78 91.5ZM89.54 100.31C90.1543 102.399 89.917 104.646 88.88 106.56C87.68 109.23 85.58 112.09 80.88 115.66C74.46 120.57 68.88 120.77 67.55 119.06C66.36 117.51 67.02 114.37 68.64 111.68C71.64 106.68 78.55 100.39 85.29 96.26C87.09 97.36 88.94 98.74 89.54 100.31V100.31ZM119.54 109.4C117.8 113.4 115.39 117.23 111.8 119.81C110.32 120.88 108.8 121.06 108.25 120.52C107.7 119.98 107.73 118.94 108.84 116.83C110.38 113.9 114.07 109.75 116.97 107.22C118.42 105.96 119.97 104.72 121.55 103.46C121.04 105.488 120.375 107.474 119.56 109.4H119.54ZM105.54 84.61C104.84 83.52 105.77 82.29 106.54 81.8C107.82 81.05 108.97 81.23 109.44 81.96C109.688 82.5065 109.709 83.129 109.499 83.6911C109.289 84.2533 108.865 84.7095 108.32 84.96C107.58 85.4 106.16 85.55 105.57 84.61H105.54ZM340.31 95.39C339.51 94.31 337.17 91.73 336.72 90.9C336.527 90.5726 336.439 90.1939 336.467 89.8149C336.496 89.4358 336.64 89.0747 336.88 88.78C337.2 88.39 338.88 86.44 339.27 85.98C339.375 85.8902 339.458 85.7766 339.51 85.6487C339.563 85.5207 339.584 85.382 339.572 85.2441C339.561 85.1063 339.516 84.9732 339.443 84.8559C339.369 84.7387 339.269 84.6407 339.15 84.57C338.49 84.1911 337.735 84.0113 336.976 84.0521C336.216 84.0929 335.485 84.3526 334.87 84.8C334.177 85.3401 333.675 86.0871 333.436 86.9323C333.196 87.7775 333.233 88.677 333.54 89.5C331.27 92.4015 328.68 95.0381 325.82 97.36C322.95 99.6 320.28 100.43 319.16 99.46C318.872 99.1312 318.659 98.7433 318.536 98.3236C318.413 97.9038 318.384 97.4623 318.45 97.03C320.658 96.0746 322.735 94.8413 324.63 93.36C328 90.66 329.25 87.23 327.85 85.36C326.45 83.49 323.71 83.52 320.68 85.73C319.077 86.9153 317.73 88.412 316.72 90.1303C315.71 91.8486 315.057 93.7532 314.8 95.73C314.761 96.0987 314.741 96.4692 314.74 96.84C312.22 97.84 308.85 98.75 307.74 97.75C307.19 97.27 306.94 96.13 307.74 93.69C308.64 90.69 311.65 85.14 313.97 80.83C316.38 80.46 318.09 80.11 319.2 79.89C321.675 79.3759 324.204 79.1643 326.73 79.26C327.02 79.26 327.15 79.14 327.08 78.86C326.913 78.4218 326.634 78.0351 326.271 77.7386C325.907 77.442 325.473 77.246 325.01 77.17C323.238 76.8483 321.418 76.9062 319.67 77.34C318.5 77.54 316.97 77.86 315.38 78.19C315.91 77.19 316.31 76.34 316.56 75.78C317.61 73.37 317.73 71.84 316.81 70.68C316.066 69.8888 315.045 69.4159 313.96 69.36C313.89 69.3458 313.817 69.349 313.748 69.3694C313.679 69.3899 313.616 69.4268 313.565 69.4771C313.513 69.5275 313.475 69.5896 313.454 69.6581C313.432 69.7265 313.427 69.7993 313.44 69.87C313.454 70.6546 313.366 71.4377 313.18 72.2C312.409 74.5427 311.497 76.8368 310.45 79.07C309.788 79.1787 309.12 79.2488 308.45 79.28C307.007 79.3698 305.562 79.1516 304.21 78.64C303.96 78.55 303.84 78.71 303.86 78.92C303.94 80.05 304.86 81.2 307.17 81.44C307.872 81.5013 308.578 81.5013 309.28 81.44C307.444 85.1743 305.831 89.0144 304.45 92.94C302.486 94.9605 300.362 96.8198 298.1 98.5C298.2 97.943 298.189 97.3716 298.067 96.8189C297.946 96.2662 297.715 95.7431 297.39 95.28C296.71 94.28 295.44 92.8 294.97 91.94C294.677 91.4688 294.489 90.9396 294.42 90.3889C294.351 89.8382 294.402 89.279 294.57 88.75C294.841 87.7049 295.427 86.7689 296.25 86.07C296.52 85.83 296.59 85.55 296.3 85.29C295.654 84.8574 294.865 84.6925 294.1 84.83C293.456 84.9446 292.849 85.21 292.327 85.6046C291.806 85.9991 291.385 86.5116 291.1 87.1C290.684 87.8922 290.517 88.7913 290.62 89.68C288.62 92.06 285.8 95.12 283.54 96.56C282.61 97.14 281.49 97.44 280.97 96.98C280.45 96.52 280.53 95.17 280.91 93.78C281.652 91.5286 282.659 89.3735 283.91 87.36C283.954 87.3106 283.986 87.2518 284.003 87.1882C284.02 87.1245 284.023 87.0577 284.01 86.9929C283.998 86.9281 283.97 86.8671 283.93 86.8146C283.891 86.7621 283.839 86.7194 283.78 86.69C282.987 86.3625 282.121 86.2487 281.27 86.36C279.98 86.58 279.33 87.76 278.7 88.84C277.112 91.7896 275.059 94.464 272.62 96.76C270.02 99.16 268.13 99.28 267.49 98.65C266.63 97.79 267.61 95.02 269.95 92.5C271.95 90.37 275.15 88.4 277.27 88.36C277.62 88.36 277.75 88.24 277.66 87.82C277.415 86.9492 276.851 86.2027 276.08 85.73C275.639 85.5344 275.16 85.4392 274.677 85.4513C274.195 85.4634 273.721 85.5825 273.29 85.8C270.635 86.9761 268.372 88.8882 266.77 91.31C265.392 93.119 264.559 95.2839 264.37 97.55C264.325 98.1926 264.509 98.8305 264.89 99.35C265.391 99.985 266.05 100.478 266.8 100.78C267.636 101.085 268.554 101.085 269.39 100.78C272.15 99.95 274.58 97.48 276.6 95.03C276.45 95.8431 276.45 96.6769 276.6 97.49C276.656 98.082 276.89 98.643 277.273 99.0984C277.655 99.5539 278.167 99.8823 278.74 100.04C279.353 100.227 279.999 100.28 280.635 100.193C281.27 100.107 281.879 99.8841 282.42 99.54C285.35 97.95 289.24 93.8 291.24 91.42C292.149 92.9874 293.255 94.4324 294.53 95.72C294.878 96.0147 295.155 96.3849 295.338 96.8025C295.522 97.2201 295.608 97.6741 295.59 98.13C295.493 98.5988 295.244 99.0227 294.883 99.337C294.522 99.6512 294.068 99.8385 293.59 99.87C292.104 100.149 290.569 99.8366 289.31 99C289.264 98.9484 289.206 98.9105 289.14 98.8905C289.074 98.8706 289.004 98.8694 288.937 98.887C288.871 98.9047 288.811 98.9405 288.763 98.9905C288.716 99.0405 288.684 99.1026 288.67 99.17C288.493 99.9317 288.588 100.732 288.94 101.43C289.345 101.986 289.891 102.424 290.523 102.696C291.154 102.969 291.848 103.067 292.53 102.98C293.654 102.987 294.76 102.701 295.74 102.15C298.768 100.262 301.579 98.0453 304.12 95.54C304.036 96.5991 304.311 97.6557 304.9 98.54C305.23 99.0371 305.668 99.4539 306.18 99.76C307.27 100.49 309.18 100.29 310.65 99.94C312.152 99.5333 313.631 99.0459 315.08 98.48C315.337 99.2436 315.78 99.9311 316.37 100.48C316.982 101.119 317.759 101.576 318.616 101.8C319.472 102.024 320.373 102.007 321.22 101.75C325.42 100.75 331.05 95.29 334.45 91.09C335.477 92.5883 336.592 94.0242 337.79 95.39C338.012 95.6524 338.175 95.9601 338.266 96.2916C338.358 96.6232 338.376 96.9707 338.32 97.31C338.1 98.65 336.8 99.38 335.27 99.38C334.636 99.3932 334.006 99.2757 333.419 99.0348C332.833 98.794 332.302 98.4349 331.86 97.98C331.809 97.9312 331.745 97.8976 331.676 97.8829C331.607 97.8682 331.535 97.8731 331.469 97.897C331.402 97.9209 331.344 97.9628 331.3 98.0181C331.256 98.0734 331.228 98.1399 331.22 98.21C331.088 98.916 331.129 99.6434 331.34 100.33C331.73 101.33 332.73 102.33 335.17 102.33C336.229 102.42 337.292 102.221 338.246 101.755C339.201 101.288 340.011 100.571 340.59 99.68C340.943 99.0084 341.103 98.2525 341.054 97.4956C341.004 96.7386 340.747 96.01 340.31 95.39ZM321.15 89.9C323.15 87.33 324.57 86.9 325.15 87.39C326.02 88.06 325.04 90.12 322.7 92.28C321.494 93.3835 320.15 94.3248 318.7 95.08C319.16 93.1986 320.008 91.4342 321.19 89.9H321.15ZM249.35 92.67C247.064 95.1623 244.481 97.3653 241.66 99.23C238.66 101.23 235.87 102.02 234.73 101.04C234.13 100.52 233.84 99.45 234.22 97.73C236.624 97.629 238.952 96.8565 240.94 95.5C244.15 93.29 245.56 90.08 244.16 88.21C242.76 86.34 239.16 86.71 236.65 88.33C235.121 89.3198 233.822 90.6267 232.842 92.1623C231.862 93.6979 231.224 95.4261 230.97 97.23C230.73 99.23 230.97 100.49 232.3 101.84C233.63 103.19 235.87 103.38 237.85 103.05C241.267 102.34 244.432 100.731 247.02 98.39C249.07 96.55 250.2 94.04 250.02 92.7C249.99 92.43 249.68 92.33 249.39 92.67H249.35ZM237.13 92.07C239.33 89.7 240.83 89.58 241.41 90.02C241.99 90.46 241.68 92.48 239.22 94.39C237.884 95.369 236.329 96.0074 234.69 96.25C235.274 94.7351 236.098 93.3239 237.13 92.07V92.07ZM273.94 71.32C269.99 78.14 267.14 83.21 264.12 89.51C261.742 94.4881 259.655 99.6 257.87 104.82C257.006 107.296 256.393 109.852 256.04 112.45C255.96 113.1 255.64 113.16 255.04 113.04C254.273 112.887 253.549 112.566 252.92 112.1C251.76 111.22 251.52 109.97 252.03 107.9C253.36 102.64 258.18 93.05 260.91 87.82C263.49 82.88 267.14 76.36 269.82 71.95C265.49 72.65 259.82 73.58 258.27 73.77C255.93 74.06 253.94 74.03 252.27 72.77C251.221 72.0076 250.435 70.9384 250.02 69.71C249.88 69.26 250.24 69.1 250.6 69.24C252.957 69.9426 255.413 70.2534 257.87 70.16C261.34 70.07 269.38 68.9 271.76 68.54C274.67 68.1 282.95 66.95 288.33 66.54C291.04 66.35 292.86 66.72 294.15 67.54C294.808 67.9362 295.37 68.4736 295.796 69.1134C296.221 69.7533 296.499 70.4796 296.61 71.24C296.66 71.71 296.33 71.81 295.97 71.66C293.284 70.6646 290.445 70.1435 287.58 70.12C283.006 70.1144 278.441 70.5194 273.94 71.33V71.32Z" fill="#343741"></path><path d="M167.76 59.91V60.1201H162.31V58.6001C161.068 59.7677 159.435 60.4308 157.73 60.4601C156.984 60.4883 156.24 60.3556 155.55 60.0709C154.86 59.7861 154.239 59.3561 153.73 58.8101C152.82 57.7401 152.49 56.6101 152.49 54.2801C152.49 53.8101 152.57 49.9001 152.28 44.4801V44.2501L157.83 43.3201V43.5901C157.61 48.7801 157.69 51.3001 157.69 52.3801C157.69 55.2201 158.09 56.5801 159.93 56.5801C160.793 56.5253 161.61 56.1717 162.24 55.5801C162.32 54.6501 162.34 53.8901 162.34 52.5801C162.34 52.0801 162.34 48.0701 162.08 44.4301V44.2101L167.61 43.3101V43.5501C167.347 49.0018 167.397 54.4641 167.76 59.91V59.91ZM270.31 60.1201V59.91C269.971 54.4663 269.935 49.0079 270.2 43.5601V43.3201L264.63 44.2201V44.4401C264.88 48.0801 264.9 52.09 264.9 52.59C264.9 53.86 264.9 54.59 264.83 55.59C264.182 56.173 263.359 56.5247 262.49 56.59C260.64 56.59 260.26 55.2301 260.26 52.3901C260.26 51.3101 260.16 48.7901 260.36 43.6001V43.3301L254.8 44.2601V44.4901C255.08 49.9101 255 53.8201 255 54.2901C255 56.6201 255.31 57.7501 256.23 58.8201C256.747 59.3729 257.377 59.8069 258.078 60.0918C258.78 60.3767 259.534 60.5057 260.29 60.4701C261.988 60.4349 263.612 59.7723 264.85 58.6101V60.1301L270.31 60.1201ZM213.01 43.3501C211.74 43.3501 210.47 44.1401 209.66 46.3501L209.72 43.5901V43.3701L204.22 44.3701V44.5201C204.527 49.6412 204.567 54.7748 204.34 59.9001V60.0701H209.89V59.8901C209.71 56.3101 209.71 53.8901 209.71 51.6301C209.71 49.3701 211.02 47.4501 213.09 47.4501C213.737 47.4381 214.381 47.5431 214.99 47.7601L215.39 47.8701L214.21 43.5601C213.834 43.4152 213.433 43.3439 213.03 43.3501H213.01ZM146.07 46.7801L145.26 46.4301C142.68 45.3401 141.34 44.7801 141.34 43.3501C141.34 42.3501 142.2 41.1501 144.24 41.1501C146.022 41.1676 147.745 41.7959 149.12 42.9301L149.38 43.1001L149.64 38.6801V38.5101L149.49 38.4401C147.708 37.6195 145.761 37.2192 143.8 37.2701C137.96 37.2701 135.97 40.9201 135.97 43.9901C135.97 47.8001 138.88 49.1701 140.62 50.0501L141.62 50.4801C143.75 51.4001 145.4 52.1901 145.4 53.8601C145.4 55.0701 144.4 56.4801 141.7 56.4801C139.771 56.5023 137.901 55.8115 136.45 54.5401L136.12 54.2801V54.5701L135.87 59.0701V59.2201L136.08 59.2901C136.404 59.4457 136.738 59.5793 137.08 59.6901C138.644 60.2098 140.282 60.4765 141.93 60.4801C143.688 60.5081 145.432 60.1675 147.05 59.4801C148.233 58.8943 149.218 57.9752 149.884 56.8361C150.55 55.6971 150.869 54.3879 150.8 53.0701C150.8 48.9401 147.59 47.4801 146.09 46.7801H146.07ZM185.78 51.2601C185.804 52.4784 185.583 53.6892 185.131 54.821C184.68 55.9528 184.006 56.9827 183.15 57.8501C180.65 60.1701 177.54 60.2101 175.24 60.1901C175.24 63.4001 175.42 67.6001 175.42 67.6001H169.74V67.4201C170.1 61.5401 170.06 49.9901 169.68 44.4701V44.2501L175.21 43.3201L175.12 44.8301C176.317 43.894 177.79 43.3806 179.31 43.3701C182.82 43.3701 185.8 46.3401 185.8 51.2601H185.78ZM180.38 51.7801C180.483 50.4547 180.103 49.1368 179.31 48.0701C179.043 47.7659 178.711 47.5254 178.339 47.3662C177.967 47.207 177.564 47.1331 177.16 47.1501C176.49 47.1563 175.84 47.3733 175.3 47.7701C175.24 50.7701 175.21 53.9901 175.3 56.7701C176.461 56.8481 177.619 56.5727 178.62 55.9801C179.229 55.4714 179.707 54.8252 180.017 54.0949C180.326 53.3646 180.458 52.5711 180.4 51.7801H180.38ZM201.89 48.2601C202.276 49.816 202.444 51.4179 202.39 53.0201V53.1801H192.31C192.35 53.8947 192.582 54.5853 192.98 55.1801C193.424 55.769 194.013 56.2331 194.689 56.5274C195.365 56.8218 196.106 56.9364 196.84 56.8601C198.517 56.8782 200.167 56.4354 201.61 55.5801L201.86 55.4501V55.7201L201.64 59.3101H201.49C199.814 60.0818 197.985 60.4614 196.14 60.4201C193.94 60.4201 189.73 60.0601 187.96 55.8901C187.425 54.6262 187.169 53.2618 187.21 51.8901C187.21 46.5501 190.42 43.3501 195.29 43.3501C196.026 43.3465 196.759 43.4406 197.47 43.6301C198.45 43.9001 200.84 44.6401 201.91 48.2601H201.89ZM197.41 49.9901C197.461 49.2145 197.298 48.4399 196.94 47.7501C196.738 47.4032 196.445 47.1182 196.092 46.9261C195.739 46.7339 195.341 46.6419 194.94 46.6601C193.34 46.6601 192.22 47.8801 192.22 49.9901H197.41ZM232.93 37.6201L227.31 38.6701C225.91 45.6701 225.31 47.8401 223.53 55.1401C221.64 47.6201 221.2 45.7301 219.8 37.7801V37.6201L214.08 38.7001C216.44 46.5901 217.62 51.3501 219.7 59.9301V60.1201H226.82L226.89 59.9201C228.95 51.2001 230.29 46.1501 232.89 37.8001L232.93 37.6201ZM245.31 59.9201V60.1201H239.99V58.8101C238.804 59.8687 237.27 60.4558 235.68 60.4601C234.962 60.4883 234.247 60.3676 233.578 60.1056C232.91 59.8435 232.303 59.4459 231.795 58.9376C231.288 58.4294 230.891 57.8216 230.631 57.1525C230.37 56.4834 230.25 55.7676 230.28 55.0501C230.268 54.1964 230.475 53.354 230.881 52.603C231.288 51.852 231.879 51.2176 232.6 50.7601C234.44 49.6101 236.18 49.2801 239.89 48.7601C239.929 48.2806 239.782 47.8046 239.48 47.4301C239.09 47.0101 238.6 46.8201 237.48 46.8201C235.669 46.917 233.89 47.3405 232.23 48.0701L231.96 48.1701L232.17 44.3901H232.33C234.332 43.7199 236.429 43.3821 238.54 43.3901C242.47 43.3901 243.7 44.6301 244.32 45.6101C245.13 46.9001 245.13 48.1201 245.12 50.9001C245.12 50.8301 245.05 54.9001 245.31 59.9201ZM240.04 52.0701C237.94 52.3301 235.48 52.7201 235.48 54.7701C235.47 55.0335 235.518 55.2959 235.621 55.5389C235.723 55.7818 235.877 55.9995 236.073 56.1767C236.268 56.3538 236.499 56.4862 236.751 56.5645C237.003 56.6428 237.269 56.6652 237.53 56.6301C238.419 56.5938 239.282 56.3211 240.03 55.84C240.07 54.4 240.04 53.3601 240.04 52.0701ZM252.79 37.9001V37.6701L247.17 38.5601V38.7701C247.59 44.3001 247.59 53.6301 247.39 59.9701V60.1701H252.93V59.9701C252.57 52.8901 252.54 45.3401 252.79 37.8501V37.9001Z" fill="#343741"></path><path d="M128.26 58.5699H65.8V59.8999H128.26V58.5699Z" fill="#343741"></path><path d="M341.06 58.5699H278.6V59.8999H341.06V58.5699Z" fill="#343741"></path></g><defs><linearGradient id="paint0_linear_37_769" x1="0.0100098" y1="72.23" x2="425.2" y2="72.23" gradientUnits="userSpaceOnUse"><stop stop-color="#9D7439"></stop><stop offset="0.53" stop-color="#FFD780"></stop><stop offset="1" stop-color="#9D7439"></stop></linearGradient><clipPath id="clip0_37_769"><rect width="425.2" height="133.48" fill="white"></rect></clipPath></defs></svg>